HIERARCHY
ROOT hip
{
	OFFSET 0.000000 0.000000 0.000000 
	CHANNELS 6 Xposition Yposition Zposition Xrotation Zrotation Yrotation
	JOINT abdomen
	{
		OFFSET 0.000000 3.402643 0.000000 
		CHANNELS 3 Xrotation Zrotation Yrotation
		JOINT chest
		{
			OFFSET 0.000000 8.438565 -0.680529 
			CHANNELS 3 Xrotation Zrotation Yrotation
			JOINT neck
			{
				OFFSET 0.000000 10.207942 -0.272212 
				CHANNELS 3 Xrotation Zrotation Yrotation
				JOINT head
				{
					OFFSET 0.000000 3.130431 0.000000 
					CHANNELS 3 Xrotation Zrotation Yrotation
					End Site
					{
						OFFSET 0.000000 3.130435 0.000000 
					}
				}
			}
			JOINT lCollar
			{
				OFFSET 3.470700 6.669187 -0.816635 
				CHANNELS 3 Yrotation Zrotation Xrotation
				JOINT lShldr
				{
					OFFSET 3.198488 0.000000 0.000000 
					CHANNELS 3 Zrotation Yrotation Xrotation
					JOINT lForeArm
					{
						OFFSET 10.139888 0.000000 0.000000 
						CHANNELS 3 Yrotation Zrotation Xrotation
						JOINT lHand
						{
							OFFSET 8.370511 0.000000 0.000000 
							CHANNELS 3 Zrotation Yrotation Xrotation
							End Site
							{
								OFFSET 4.083176 0.000000 0.000000 
							}
						}
					}
				}
			}
			JOINT rCollar
			{
				OFFSET -3.470700 6.669187 -0.816635 
				CHANNELS 3 Yrotation Zrotation Xrotation
				JOINT rShldr
				{
					OFFSET -3.198488 0.000000 0.000000 
					CHANNELS 3 Zrotation Yrotation Xrotation
					JOINT rForeArm
					{
						OFFSET -10.139888 0.000000 0.000000 
						CHANNELS 3 Yrotation Zrotation Xrotation
						JOINT rHand
						{
							OFFSET -8.370511 0.000000 0.000000 
							CHANNELS 3 Zrotation Yrotation Xrotation
							End Site
							{
								OFFSET -4.083176 0.000000 0.000000 
							}
						}
					}
				}
			}
		}
	}
	JOINT lThigh
	{
		OFFSET 5.308129 -1.633274 1.361059 
		CHANNELS 3 Xrotation Zrotation Yrotation
		JOINT lShin
		{
			OFFSET -2.041588 -20.007561 0.000000 
			CHANNELS 3 Xrotation Zrotation Yrotation
			JOINT lFoot
			{
				OFFSET 0.000000 -19.190928 -1.224953 
				CHANNELS 3 Xrotation Yrotation Zrotation
				End Site
				{
					OFFSET 0.000000 -2.449906 4.627600 
				}
			}
		}
	}
	JOINT rThigh
	{
		OFFSET -5.308129 -1.633274 1.361059 
		CHANNELS 3 Xrotation Zrotation Yrotation
		JOINT rShin
		{
			OFFSET 2.041588 -20.007561 0.000000 
			CHANNELS 3 Xrotation Zrotation Yrotation
			JOINT rFoot
			{
				OFFSET 0.000000 -19.190928 -1.224953 
				CHANNELS 3 Xrotation Yrotation Zrotation
				End Site
				{
					OFFSET 0.000000 -2.449906 4.627600 
				}
			}
		}
	}
}
MOTION
Frames: 8
Frame Time: 0.033333
-9.499484 49.484715 21.980181 2.209550 11.321105 11.886340 0.000000 0.000000 0.000000 15.141732 2.234409 -2.374668 12.982276 0.068095 -5.039059 15.296902 7.737584 -5.538083 -8.401568 8.016679 14.867848 -69.846199 4.711850 32.299221 -95.453072 7.272325 36.294071 -0.553552 1.395053 -3.449909 -3.474402 9.789408 14.549199 39.605759 -13.503767 19.696632 63.012524 3.807633 26.448940 -11.802829 -3.127015 -3.523835 -22.729622 17.738483 12.592873 41.417427 -4.561116 14.349507 13.962496 -0.459805 -3.685762 -30.406834 -12.186065 -5.940699 52.650604 0.184634 -8.627960 0.090909 -0.088514 0.874918 
-6.539709 47.926388 22.142302 1.773075 13.096252 11.595617 0.000000 0.000000 0.000000 15.458799 0.224389 -2.539081 14.565406 -1.592423 -6.125558 13.246383 12.935662 -7.615017 -8.569243 9.387100 15.027811 -71.657822 11.206280 32.324261 -101.253281 9.737553 39.082298 -1.197677 -0.423427 -3.400078 -2.495870 4.113342 14.633430 45.574574 -15.533651 19.974545 67.413300 1.713920 24.777277 -16.255276 -2.527078 -3.626240 -17.127066 18.786016 11.109552 24.352524 -2.543847 24.835918 18.628103 -0.663226 -3.683700 -26.707005 -14.266432 -7.579822 51.145676 -0.392764 -17.157164 -17.004303 -0.442626 3.460994 
-3.015337 46.431683 22.072847 1.103152 12.345103 12.110365 0.000000 0.000000 0.000000 15.843116 1.433594 -2.989056 16.626024 -0.959054 -7.256962 10.640668 15.797411 -9.928344 -9.625957 10.395416 15.628748 -74.267876 17.960924 31.331829 -106.728111 11.864758 37.571903 -2.385759 0.641536 -3.398448 -3.322061 4.264577 15.081097 46.756939 -18.540415 16.160789 73.315422 -0.898183 25.031538 -16.752642 -2.266194 -3.651796 -8.974227 20.281248 10.234018 2.950706 1.199852 18.518942 32.040424 -1.351726 -5.809730 -28.102068 -16.755754 -2.681203 56.977226 -4.414443 -9.086082 -22.571993 -1.950456 9.376170 
0.056819 43.491722 22.914131 1.463212 9.898501 12.573250 0.000000 0.000000 0.000000 13.998382 2.602402 -3.558111 16.235752 -0.522177 -8.027721 9.260989 17.508747 -11.278988 -10.264699 7.685515 13.910522 -73.669174 28.030163 26.777502 -114.063957 12.807459 37.937553 -4.902016 0.871058 -3.347600 -5.443219 7.050963 13.572441 46.029732 -22.351940 10.622933 79.532249 -1.604732 22.245302 -20.042604 -2.833477 -3.591277 -6.112983 24.096573 8.444659 -0.625329 4.251320 11.455395 22.615486 -6.438456 -29.051714 -30.482401 -19.615744 2.074867 67.805145 -6.014225 2.109846 -32.669033 -3.402074 11.536420 
3.333559 41.114994 22.754862 0.140393 8.609580 11.044868 0.000000 0.000000 0.000000 16.059465 3.350135 -4.255041 17.837820 -0.386788 -8.037320 6.009296 19.276190 -11.759671 -10.315907 5.040402 15.662165 -76.555275 31.922009 17.757259 -118.564682 11.865286 37.874187 -6.242307 1.403840 -3.354570 -6.416220 9.492288 15.557366 47.951763 -21.599916 -0.747405 81.794319 -0.569873 19.066135 -23.981649 -1.478810 -3.896106 -10.681828 26.820925 3.937219 15.553452 6.541720 5.546227 5.385877 -1.873211 -40.095890 -31.982042 -22.734140 4.710966 72.794464 -7.283215 5.919235 -38.576771 -5.187185 14.803078 
5.543097 39.472366 21.634775 -4.598613 10.725710 6.383103 0.000000 0.000000 0.000000 23.880114 0.721212 -3.623251 22.354147 -3.113614 -8.049566 -1.890473 21.946798 -13.735408 -7.608612 -0.895578 22.112831 -73.747307 24.752386 8.082885 -121.109032 9.543852 35.940571 -7.982126 3.126581 -3.479100 -5.763688 7.622199 22.324816 57.403778 -14.876664 -15.034701 82.011505 0.686277 22.203131 -26.375532 -4.012670 -3.392762 -11.140968 25.015837 -0.048848 30.211010 8.840202 5.287144 -4.698478 1.894479 -43.512768 -35.514267 -22.020262 12.694547 78.745819 -9.295750 6.574340 -36.835060 -5.958596 17.772081 
6.554261 38.444893 21.316601 -5.373191 9.993852 4.145398 0.000000 0.000000 0.000000 27.748104 -0.361067 -2.177814 23.678825 -4.732177 -7.731826 -5.877143 24.396450 -17.058538 -5.022139 -4.716065 24.994223 -64.804985 12.836202 -0.185661 -115.122467 6.282038 32.151154 -9.718763 1.556637 -3.306201 -6.570082 9.901580 24.992237 63.326202 -9.951532 -20.049671 79.030273 1.362054 23.731358 -35.192951 -9.503916 -1.594538 -14.246901 24.402788 -4.243244 39.359158 10.182236 7.391921 -9.542108 4.061049 -45.792370 -38.788528 -19.091593 15.519746 83.864044 -9.061742 7.962425 -36.950230 -5.499911 16.380186 
7.288050 37.528080 21.288578 -4.757305 9.600775 5.130885 0.000000 0.000000 0.000000 28.156855 -0.449050 -1.572370 26.304419 -4.268732 -8.539801 -13.665735 26.180838 -21.848740 -5.190236 -5.419069 24.998663 -59.091587 0.888446 -6.289773 -100.889854 2.807626 28.323112 -8.448608 -2.697978 -2.983234 -6.653852 11.742681 24.995453 62.471416 -11.658983 -14.308036 75.582260 1.933462 17.641932 -30.800089 -10.154703 -1.748226 -17.557852 24.637987 -6.253115 44.279671 10.874578 5.857957 -12.845346 5.574814 -46.685059 -41.224602 -19.783693 12.803807 88.003624 -7.625769 11.031597 -39.928310 -4.267124 11.596458 
